<svg xmlns="http://www.w3.org/2000/svg" viewBox="0 0 165 25" fill="none">
    <title>Landjourney logo</title>
    <path d="M26.5937 0.536255V18.7011H23.2533V0.536255H26.5937Z" fill="white"/>
    <path d="M34.3389 18.7009H23.7083V15.3605H34.3389V18.7009Z" fill="white"/>
    <path d="M35.7532 8.49298C36.2855 7.46079 37.0089 6.66429 37.9232 6.10756C38.8375 5.55083 39.8575 5.27451 40.9873 5.27451C41.9747 5.27451 42.8362 5.47363 43.5758 5.87187C44.3154 6.27012 44.9087 6.76996 45.3517 7.37545V5.48988H48.7124V18.7051H45.3517V16.7748C44.9209 17.3966 44.3317 17.9086 43.5758 18.315C42.82 18.7213 41.9504 18.9205 40.9629 18.9205C39.8494 18.9205 38.8375 18.636 37.9232 18.063C37.0089 17.49 36.2855 16.6814 35.7532 15.6411C35.2208 14.6007 34.9526 13.4019 34.9526 12.0528C34.9526 10.7036 35.2168 9.53328 35.7532 8.5011V8.49298ZM44.8762 10.0087C44.5593 9.42762 44.1285 8.98468 43.588 8.67584C43.0476 8.36699 42.4665 8.20851 41.8488 8.20851C41.2311 8.20851 40.654 8.35886 40.1298 8.65958C39.6056 8.96436 39.1789 9.40324 38.8538 9.98435C38.5287 10.5655 38.3662 11.2522 38.3662 12.0487C38.3662 12.8452 38.5287 13.5401 38.8538 14.1334C39.1789 14.7308 39.6097 15.1859 40.142 15.5069C40.6743 15.8239 41.2433 15.9824 41.8488 15.9824C42.4543 15.9824 43.0476 15.828 43.588 15.5191C44.1285 15.2103 44.5593 14.7633 44.8762 14.1822C45.1932 13.6011 45.3517 12.9062 45.3517 12.0975C45.3517 11.2888 45.1932 10.5898 44.8762 10.0087Z" fill="white"/>
    <path d="M61.6919 6.78637C62.6631 7.78198 63.1467 9.16771 63.1467 10.9476V18.7012H59.8063V11.4028C59.8063 10.3543 59.5462 9.54564 59.022 8.98485C58.4978 8.41999 57.7826 8.13959 56.8764 8.13959C55.9702 8.13959 55.2265 8.41999 54.6941 8.98485C54.1618 9.5497 53.8936 10.3543 53.8936 11.4028V18.7012H50.5532V5.48598H53.8936V7.13179C54.3406 6.55881 54.9095 6.1118 55.6004 5.78263C56.2912 5.45754 57.0511 5.29498 57.876 5.29498C59.4528 5.29498 60.7206 5.79483 61.6919 6.78637Z" fill="white"/>
    <path d="M65.3043 8.49302C65.8366 7.46084 66.564 6.66434 67.4865 6.10761C68.409 5.55088 69.433 5.27455 70.5627 5.27455C71.4202 5.27455 72.2411 5.46148 73.0213 5.83535C73.8015 6.20921 74.4192 6.70498 74.8825 7.32672V0.536255H78.2676V18.7011H74.8825V16.7464C74.468 17.3966 73.8869 17.9208 73.1432 18.3191C72.3955 18.7173 71.5299 18.9165 70.5424 18.9165C69.429 18.9165 68.413 18.632 67.4906 18.059C66.5681 17.486 65.8407 16.6773 65.3084 15.637C64.776 14.5967 64.5078 13.3979 64.5078 12.0488C64.5078 10.6996 64.772 9.52926 65.3084 8.49708L65.3043 8.49302ZM74.4273 10.0088C74.1104 9.42767 73.6796 8.98472 73.1391 8.67588C72.5987 8.36704 72.0176 8.20856 71.3999 8.20856C70.7822 8.20856 70.2051 8.35891 69.6809 8.65962C69.1567 8.9644 68.73 9.40329 68.4049 9.9844C68.0798 10.5655 67.9173 11.2523 67.9173 12.0488C67.9173 12.8453 68.0798 13.5401 68.4049 14.1335C68.73 14.7308 69.1608 15.186 69.6931 15.507C70.2255 15.824 70.7944 15.9824 71.3999 15.9824C72.0054 15.9824 72.5987 15.828 73.1391 15.5192C73.6796 15.2103 74.1104 14.7633 74.4273 14.1822C74.7443 13.6011 74.9028 12.9062 74.9028 12.0975C74.9028 11.2889 74.7443 10.5899 74.4273 10.0088Z" fill="white"/>
    <path d="M83.4406 20.8713C83.4406 22.3342 83.0789 23.3867 82.3556 24.0328C81.6322 24.6749 80.596 25 79.2427 25H77.7635V22.1635H78.7185C79.2265 22.1635 79.5841 22.0619 79.7914 21.8669C79.9986 21.6677 80.1002 21.3467 80.1002 20.8997V5.49415H83.4406V20.8794V20.8713ZM80.3034 3.35257C79.9133 2.97871 79.7182 2.51544 79.7182 1.95465C79.7182 1.39385 79.9133 0.934657 80.3034 0.560795C80.6935 0.186933 81.1893 0 81.7948 0C82.4003 0 82.8676 0.186933 83.2496 0.560795C83.6316 0.934657 83.8226 1.39792 83.8226 1.95465C83.8226 2.51138 83.6316 2.97464 83.2496 3.35257C82.8676 3.72643 82.384 3.91336 81.7948 3.91336C81.2055 3.91336 80.6935 3.72643 80.3034 3.35257Z" fill="white"/>
    <path d="M88.2114 18.0711C87.1955 17.5063 86.3949 16.7057 85.8138 15.6736C85.2327 14.6414 84.9442 13.4466 84.9442 12.0975C84.9442 10.7483 85.2408 9.55361 85.8382 8.51736C86.4356 7.48517 87.2483 6.68461 88.2846 6.11975C89.3168 5.5549 90.4709 5.27451 91.7428 5.27451C93.0147 5.27451 94.1688 5.5549 95.201 6.11975C96.2332 6.68461 97.05 7.48517 97.6474 8.51736C98.2448 9.54954 98.5414 10.7443 98.5414 12.0975C98.5414 13.4507 98.2366 14.6414 97.623 15.6736C97.0134 16.7057 96.1844 17.5063 95.1441 18.0711C94.1038 18.636 92.9375 18.9164 91.6493 18.9164C90.3611 18.9164 89.2314 18.636 88.2155 18.0711H88.2114ZM93.352 15.5679C93.8844 15.2753 94.3111 14.8324 94.628 14.2431C94.945 13.6539 95.1035 12.9387 95.1035 12.0975C95.1035 10.8418 94.7743 9.87464 94.112 9.20006C93.4496 8.52548 92.6449 8.1882 91.69 8.1882C90.735 8.1882 89.9385 8.52548 89.2924 9.20006C88.6503 9.87464 88.3252 10.8418 88.3252 12.0975C88.3252 13.3532 88.6381 14.3203 89.268 14.9949C89.8938 15.6736 90.6862 16.0109 91.6412 16.0109C92.2467 16.0109 92.8116 15.8645 93.3439 15.5679H93.352Z" fill="white"/>
    <path d="M112.517 5.48618V18.7014H109.156V17.0312C108.725 17.6042 108.165 18.0512 107.474 18.3804C106.783 18.7055 106.031 18.868 105.218 18.868C104.186 18.868 103.272 18.6486 102.475 18.2097C101.679 17.7749 101.057 17.1287 100.602 16.2794C100.147 15.4301 99.9233 14.4142 99.9233 13.2398V5.48618H103.26V12.7602C103.26 13.8087 103.524 14.6174 104.048 15.1822C104.572 15.7471 105.287 16.0275 106.194 16.0275C107.1 16.0275 107.839 15.7471 108.364 15.1822C108.888 14.6174 109.148 13.8127 109.148 12.7602V5.48618H112.509H112.517Z" fill="white"/>
    <path d="M119.396 5.89235C120.087 5.49411 120.88 5.29498 121.77 5.29498V8.80197H120.888C119.839 8.80197 119.047 9.04986 118.515 9.54157C117.982 10.0333 117.714 10.8907 117.714 12.118V18.7012H114.374V5.48598H117.714V7.53816C118.145 6.8392 118.706 6.29059 119.396 5.89235Z" fill="white"/>
    <path d="M134.672 6.78637C135.643 7.78198 136.127 9.16771 136.127 10.9476V18.7012H132.787V11.4028C132.787 10.3543 132.527 9.54564 132.002 8.98485C131.478 8.41999 130.763 8.13959 129.857 8.13959C128.951 8.13959 128.207 8.41999 127.674 8.98485C127.142 9.5497 126.874 10.3543 126.874 11.4028V18.7012H123.534V5.48598H126.874V7.13179C127.321 6.55881 127.89 6.1118 128.581 5.78263C129.272 5.45754 130.031 5.29498 130.856 5.29498C132.433 5.29498 133.701 5.79483 134.672 6.78637Z" fill="white"/>
    <path d="M150.533 13.0974H140.873C140.955 14.0524 141.288 14.8001 141.873 15.3406C142.458 15.8811 143.185 16.1533 144.043 16.1533C145.282 16.1533 146.164 15.621 146.692 14.5563H150.293C149.911 15.8282 149.179 16.8726 148.099 17.6935C147.018 18.5103 145.689 18.9207 144.116 18.9207C142.844 18.9207 141.702 18.6403 140.694 18.0755C139.687 17.5106 138.898 16.7101 138.333 15.6779C137.769 14.6457 137.488 13.451 137.488 12.1018C137.488 10.7527 137.764 9.53355 138.321 8.50137C138.878 7.46918 139.658 6.6727 140.658 6.11597C141.658 5.55924 142.812 5.2829 144.116 5.2829C145.421 5.2829 146.497 5.55517 147.493 6.09564C148.485 6.63612 149.257 7.40416 149.805 8.39571C150.354 9.39132 150.626 10.5292 150.626 11.8174C150.626 12.2928 150.594 12.7236 150.533 13.1056V13.0974ZM147.172 10.8543C147.156 9.99682 146.847 9.31004 146.241 8.78989C145.636 8.2738 144.896 8.01372 144.023 8.01372C143.198 8.01372 142.499 8.26567 141.934 8.76551C141.369 9.26534 141.024 9.96025 140.898 10.8543H147.172Z" fill="white"/>
    <path d="M164.748 5.48636L156.567 24.9475H153.016L155.877 18.3643L150.582 5.4823H154.324L157.734 14.711L161.192 5.4823H164.744L164.748 5.48636Z" fill="white"/>
    <path d="M7.16483 8.26563V13.4916C7.16483 16.3646 9.48521 18.7013 12.3583 18.7013H10.7003C4.92166 18.7013 0.252441 14.0158 0.252441 8.23719V0.507996H13.2076V8.26563H7.1689H7.16483Z" fill="white"/>
    <path d="M13.2034 8.26593V18.6975H12.3581C9.48506 18.6975 7.16467 16.3609 7.16467 13.4878V8.26187H13.2034V8.26593Z" fill="#1DBF73"/>
    <path d="M19.242 13.4753V18.7012H13.2034V8.26965H14.0324C16.9054 8.26965 19.242 10.6063 19.242 13.4793V13.4753Z" fill="#88FFC0"/>
</svg>
