<?xml version="1.0" encoding="UTF-8"?>
<svg id="Layer_2" data-name="Layer 2" xmlns="http://www.w3.org/2000/svg" viewBox="0 0 1105.06 167.91">
  <defs>
    <style>
      .cls-1 {
        fill: #1dbf73;
      }

      .cls-1, .cls-2, .cls-3 {
        stroke-width: 0px;
      }

      .cls-2 {
        fill: #88ffc0;
      }

      .cls-3 {
        fill: #051e11;
      }
    </style>
  </defs>
  <g id="Layer_1-2" data-name="Layer 1">
    <g>
      <path class="cls-3" d="m176.96,3.58v122.03h-22.43V3.58h22.43Z"/>
      <path class="cls-3" d="m229,125.61h-71.43v-22.43h71.43v22.43Z"/>
      <path class="cls-3" d="m238.52,57.04c3.57-6.94,8.43-12.28,14.57-16.03,6.14-3.74,13.01-5.6,20.59-5.6,6.62,0,12.42,1.34,17.38,4,4.97,2.68,8.95,6.04,11.94,10.1v-12.66h22.59v88.76h-22.59v-12.98c-2.88,4.17-6.86,7.61-11.94,10.34-5.07,2.72-10.91,4.08-17.54,4.08-7.47,0-14.29-1.92-20.43-5.76-6.14-3.85-11-9.27-14.57-16.26-3.59-7-5.37-15.04-5.37-24.12s1.78-16.93,5.37-23.87Zm61.28,10.17c-2.13-3.9-5.02-6.88-8.64-8.97-3.64-2.08-7.53-3.13-11.7-3.13s-8.02,1.02-11.54,3.04c-3.52,2.03-6.39,5-8.58,8.9-2.19,3.89-3.28,8.52-3.28,13.86s1.09,10.01,3.28,14.01c2.19,4.01,5.08,7.08,8.65,9.22,3.58,2.13,7.39,3.2,11.46,3.2s8.06-1.04,11.7-3.12c3.63-2.08,6.51-5.08,8.64-8.98,2.14-3.89,3.21-8.57,3.21-14.01s-1.07-10.12-3.21-14.02Z"/>
      <path class="cls-3" d="m412.76,45.58c6.51,6.68,9.77,16,9.77,27.96v52.07h-22.43v-49.03c0-7.04-1.76-12.47-5.28-16.25-3.53-3.79-8.33-5.69-14.42-5.69s-11.08,1.9-14.66,5.69c-3.58,3.78-5.37,9.21-5.37,16.25v49.03h-22.43V36.85h22.43v11.06c2.99-3.84,6.82-6.86,11.46-9.06s9.74-3.29,15.29-3.29c10.58,0,19.12,3.34,25.64,10.01Z"/>
      <path class="cls-3" d="m437.03,57.04c3.57-6.94,8.46-12.28,14.66-16.03,6.19-3.74,13.08-5.6,20.66-5.6,5.77,0,11.27,1.25,16.51,3.76,5.23,2.51,9.4,5.85,12.5,10.01V3.58h22.75v122.03h-22.75v-13.13c-2.78,4.38-6.68,7.9-11.7,10.57-5.03,2.67-10.85,4-17.47,4-7.48,0-14.32-1.92-20.51-5.76-6.2-3.85-11.09-9.27-14.66-16.26-3.59-7-5.37-15.04-5.37-24.12s1.78-16.93,5.37-23.87Zm61.28,10.17c-2.13-3.9-5.02-6.88-8.64-8.97-3.64-2.08-7.53-3.13-11.7-3.13s-8.02,1.02-11.54,3.04c-3.52,2.03-6.39,5-8.58,8.9-2.19,3.89-3.28,8.52-3.28,13.86s1.09,10.01,3.28,14.01c2.19,4.01,5.08,7.08,8.65,9.22,3.58,2.13,7.39,3.2,11.46,3.2s8.06-1.04,11.7-3.12c3.63-2.08,6.51-5.08,8.64-8.98,2.14-3.89,3.21-8.57,3.21-14.01s-1.07-10.12-3.21-14.02Z"/>
      <path class="cls-3" d="m558.87,140.19c0,9.83-2.43,16.9-7.29,21.23-4.86,4.32-11.83,6.48-20.91,6.48h-9.94v-19.06h6.41c3.42,0,5.82-.67,7.22-2,1.38-1.34,2.07-3.5,2.07-6.49V36.85h22.43v103.35Zm-21.06-117.68c-2.62-2.51-3.93-5.63-3.93-9.38s1.31-6.86,3.93-9.37c2.61-2.51,5.96-3.76,10.01-3.76s7.21,1.25,9.77,3.76c2.56,2.51,3.84,5.63,3.84,9.37s-1.28,6.86-3.84,9.38c-2.56,2.51-5.82,3.76-9.77,3.76s-7.4-1.25-10.01-3.76Z"/>
      <path class="cls-3" d="m590.92,121.37c-6.84-3.79-12.2-9.16-16.11-16.11-3.9-6.94-5.85-14.95-5.85-24.03s2-17.09,6-24.04c4.01-6.94,9.49-12.31,16.43-16.11,6.94-3.78,14.69-5.68,23.23-5.68s16.29,1.9,23.24,5.68c6.94,3.79,12.42,9.16,16.43,16.11,4,6.94,6,14.95,6,24.04s-2.05,17.08-6.17,24.03c-4.11,6.94-9.67,12.31-16.66,16.11-6.99,3.79-14.82,5.68-23.47,5.68s-16.23-1.89-23.07-5.68Zm34.52-16.82c3.58-1.98,6.43-4.95,8.58-8.9,2.13-3.95,3.21-8.75,3.21-14.41,0-8.44-2.22-14.93-6.65-19.47-4.44-4.54-9.86-6.81-16.26-6.81s-11.77,2.27-16.11,6.81c-4.32,4.54-6.48,11.03-6.48,19.47s2.1,14.92,6.33,19.46c4.21,4.55,9.53,6.82,15.94,6.82,4.06,0,7.87-.99,11.45-2.96Z"/>
      <path class="cls-3" d="m754.18,36.85v88.76h-22.59v-11.22c-2.88,3.84-6.65,6.86-11.29,9.06-4.65,2.19-9.69,3.29-15.14,3.29-6.94,0-13.08-1.47-18.42-4.41-5.35-2.93-9.53-7.27-12.58-12.98-3.05-5.71-4.57-12.52-4.57-20.43v-52.07h22.42v48.87c0,7.05,1.77,12.48,5.29,16.26,3.52,3.79,8.33,5.69,14.42,5.69s11.05-1.9,14.58-5.69c3.52-3.78,5.28-9.21,5.28-16.26v-48.87h22.59Z"/>
      <path class="cls-3" d="m800.4,39.58c4.65-2.67,9.96-4.01,15.95-4.01v23.56h-5.94c-7.05,0-12.36,1.65-15.94,4.97-3.58,3.31-5.37,9.07-5.37,17.3v44.22h-22.43V36.85h22.43v13.78c2.88-4.69,6.65-8.38,11.29-11.05Z"/>
      <path class="cls-3" d="m903.02,45.58c6.51,6.68,9.77,16,9.77,27.96v52.07h-22.43v-49.03c0-7.04-1.76-12.47-5.28-16.25-3.53-3.79-8.33-5.69-14.42-5.69s-11.08,1.9-14.66,5.69c-3.58,3.78-5.37,9.21-5.37,16.25v49.03h-22.43V36.85h22.43v11.06c2.99-3.84,6.82-6.86,11.46-9.06s9.74-3.29,15.29-3.29c10.58,0,19.12,3.34,25.64,10.01Z"/>
      <path class="cls-3" d="m1009.57,87.96h-64.89c.54,6.41,2.78,11.43,6.73,15.06,3.95,3.63,8.81,5.45,14.58,5.45,8.33,0,14.26-3.58,17.79-10.74h24.19c-2.56,8.55-7.48,15.57-14.74,21.07-7.27,5.5-16.18,8.24-26.77,8.24-8.55,0-16.2-1.89-22.99-5.68-6.78-3.79-12.07-9.16-15.86-16.11-3.79-6.94-5.68-14.95-5.68-24.03s1.87-17.25,5.6-24.19c3.74-6.94,8.98-12.28,15.71-16.03,6.73-3.74,14.47-5.6,23.23-5.6s16,1.82,22.68,5.45c6.67,3.63,11.85,8.78,15.54,15.46,3.69,6.68,5.53,14.34,5.53,22.99,0,3.21-.22,6.09-.64,8.65Zm-22.59-15.06c-.11-5.77-2.19-10.39-6.25-13.87-4.07-3.46-9.04-5.2-14.9-5.2-5.55,0-10.23,1.68-14.02,5.05-3.79,3.36-6.11,8.04-6.96,14.02h42.14Z"/>
      <path class="cls-3" d="m1105.06,36.85l-54.96,130.75h-23.87l19.23-44.22-35.57-86.53h25.15l22.91,62.01,23.24-62.01h23.87Z"/>
      <path class="cls-3" d="m46.45,55.52v35.1c0,19.3,15.59,34.99,34.89,34.99h-11.15C31.38,125.61,0,94.13,0,55.31V3.39h87.02v52.13h-40.57Z"/>
      <path class="cls-1" d="m87.02,55.52v70.09h-5.68c-19.3,0-34.89-15.69-34.89-34.99v-35.1h40.57Z"/>
      <path class="cls-2" d="m127.58,90.51v35.1h-40.57V55.52h5.57c19.3,0,34.99,15.69,34.99,34.99Z"/>
    </g>
  </g>
</svg>